<svg width="15" height="17" viewBox="0 0 15 17" fill="none" xmlns="http://www.w3.org/2000/svg">
<path fill-rule="evenodd" clip-rule="evenodd" d="M9.06017 0.809224C9.65463 0.270601 10.4334 -0.0187968 11.2354 0.000947757C12.0373 0.0206923 12.8009 0.348067 13.3682 0.915292C13.9354 1.48252 14.2628 2.24615 14.2825 3.04808C14.3023 3.85002 14.0129 4.62883 13.4742 5.22329C13.4683 5.22981 13.4623 5.2362 13.4561 5.24247L5.69829 13.1097C5.69007 13.118 5.68161 13.1261 5.67293 13.134C5.31625 13.4571 4.84896 13.6308 4.3678 13.6189C3.88664 13.6071 3.42846 13.4107 3.08813 13.0703C2.74779 12.73 2.55137 12.2718 2.53952 11.7907C2.52768 11.3095 2.70131 10.8422 3.02449 10.4855C3.03021 10.4792 3.03606 10.473 3.04203 10.4669L9.54985 3.84976C9.79188 3.60366 10.1876 3.60036 10.4337 3.8424C10.6798 4.08443 10.6831 4.48015 10.4411 4.72625L3.94376 11.3328C3.84056 11.4506 3.78528 11.603 3.78914 11.7599C3.79309 11.9203 3.85857 12.073 3.97201 12.1864C4.08546 12.2999 4.23818 12.3654 4.39857 12.3693C4.5541 12.3731 4.70528 12.3188 4.82271 12.2173L12.5561 4.37486C12.874 4.01936 13.0446 3.55592 13.0329 3.07885C13.021 2.59769 12.8246 2.13951 12.4843 1.79918C12.144 1.45884 11.6858 1.26242 11.2046 1.25057C10.7289 1.23886 10.2667 1.40846 9.91163 1.72463L2.16397 9.58152C1.57877 10.1667 1.25 10.9604 1.25 11.788C1.25 12.6156 1.57876 13.4093 2.16396 13.9945C2.74916 14.5797 3.54286 14.9085 4.37046 14.9085C5.19805 14.9085 5.99175 14.5797 6.57695 13.9945L12.9916 7.59552C13.2359 7.35174 13.6317 7.35223 13.8754 7.5966C14.1192 7.84098 14.1187 8.23671 13.8744 8.48049L7.46084 14.8784C6.64122 15.698 5.52957 16.1585 4.37046 16.1585C3.21134 16.1585 2.0997 15.698 1.28008 14.8784C0.460458 14.0588 0 12.9471 0 11.788C0 10.6296 0.459853 9.51871 1.27846 8.69924L9.03481 0.833542C9.04303 0.8252 9.05149 0.817091 9.06017 0.809224Z" fill="#FF731D"/>
</svg>
