<svg width="9" height="9" viewBox="0 0 9 9" fill="none" xmlns="http://www.w3.org/2000/svg">
<path d="M3.97137 5.02875C4.12512 5.175 4.12512 5.415 3.97137 5.56125C3.82512 5.7075 3.58512 5.7075 3.43887 5.56125C2.70762 4.83 2.70762 3.64125 3.43887 2.91L4.76637 1.5825C5.49762 0.851245 6.68637 0.851245 7.41762 1.5825C8.14887 2.31375 8.14887 3.5025 7.41762 4.23375L6.85887 4.7925C6.86262 4.485 6.81387 4.1775 6.70887 3.885L6.88512 3.705C7.32762 3.26625 7.32762 2.55375 6.88512 2.115C6.44637 1.6725 5.73387 1.6725 5.29512 2.115L3.97137 3.43875C3.52887 3.8775 3.52887 4.59 3.97137 5.02875ZM5.02887 3.43875C5.17512 3.2925 5.41512 3.2925 5.56137 3.43875C6.29262 4.17 6.29262 5.35875 5.56137 6.09L4.23387 7.4175C3.50262 8.14875 2.31387 8.14875 1.58262 7.4175C0.851367 6.68625 0.851367 5.4975 1.58262 4.76625L2.14137 4.2075C2.13762 4.515 2.18637 4.8225 2.29137 5.11875L2.11512 5.295C1.67262 5.73375 1.67262 6.44625 2.11512 6.885C2.55387 7.3275 3.26637 7.3275 3.70512 6.885L5.02887 5.56125C5.47137 5.1225 5.47137 4.41 5.02887 3.97125C4.87512 3.825 4.87512 3.585 5.02887 3.43875Z" fill="#404040"/>
</svg>
