<svg width="47" height="40" viewBox="0 0 47 40" fill="none" xmlns="http://www.w3.org/2000/svg">
<path d="M17.625 11.2196C17.625 9.60195 18.9371 8.2961 20.5625 8.2961C22.1879 8.2961 23.5 9.60195 23.5 11.2196C23.5 12.8373 22.1879 14.1432 20.5625 14.1432C18.9371 14.1432 17.625 12.8373 17.625 11.2196ZM47 10.2451V21.9393C47 27.3186 42.6133 31.6844 37.2083 31.6844H19.5833C14.1783 31.6844 9.79167 27.3186 9.79167 21.9393V10.2451C9.79167 4.86582 14.1783 0.5 19.5833 0.5H37.2083C42.6133 0.5 47 4.86582 47 10.2451ZM13.7083 21.9393C13.7083 23.44 14.2763 24.8043 15.2163 25.8568L25.4779 15.6439C27.3971 13.7339 30.7458 13.7339 32.665 15.6439L34.7017 17.6709C35.1521 18.1192 35.9158 18.1192 36.3662 17.6709L43.0833 10.9858V10.2451C43.0833 7.02924 40.4396 4.39805 37.2083 4.39805H19.5833C16.3521 4.39805 13.7083 7.02924 13.7083 10.2451V21.9393ZM43.0833 21.9393V16.5015L39.1275 20.4385C37.2083 22.3486 33.8596 22.3486 31.9404 20.4385L29.9038 18.4115C29.4533 17.9633 28.7092 17.9633 28.2392 18.4115L18.8588 27.7474C19.0938 27.7864 19.3288 27.7864 19.5833 27.7864H37.2083C40.4396 27.7864 43.0833 25.1552 43.0833 21.9393ZM33.2917 35.5825H9.79167C6.56042 35.5825 3.91667 32.9513 3.91667 29.7354V18.0412C3.91667 16.599 4.44542 15.2151 5.42458 14.1432C6.14917 13.3441 6.07083 12.1162 5.26792 11.3951C4.465 10.6739 3.23125 10.7519 2.50667 11.551C0.900833 13.3441 0 15.6439 0 18.0607V29.7549C0 35.1342 4.38667 39.5 9.79167 39.5H33.2917C34.3688 39.5 35.25 38.6229 35.25 37.551C35.25 36.479 34.3688 35.602 33.2917 35.602V35.5825Z" fill="#E0E0E0"/>
</svg>
