<svg width="16" height="16" viewBox="0 0 16 16" fill="none" xmlns="http://www.w3.org/2000/svg">
<g clip-path="url(#clip0_227_1414)">
<path d="M7.87793 5.46598L10.1683 7.75637L10.1792 7.6364C10.1792 6.43303 9.20128 5.45508 7.9979 5.45508L7.87793 5.46598Z" fill="#767676"/>
<path d="M7.99807 4.00086C10.0049 4.00086 11.6336 5.6296 11.6336 7.63641C11.6336 8.1054 11.5391 8.55257 11.3755 8.96337L13.5023 11.0902C14.6002 10.174 15.4655 8.98883 15.9999 7.63641C14.7384 4.44442 11.6373 2.18311 7.9981 2.18311C6.98014 2.18311 6.00584 2.36487 5.10059 2.69207L6.67114 4.25897C7.08191 4.09902 7.52908 4.00086 7.99807 4.00086Z" fill="#767676"/>
<path d="M0.727096 2.01959L2.3849 3.6774L2.71575 4.00824C1.51602 4.94621 0.567144 6.19321 0 7.6365C1.25791 10.8285 4.36264 13.0898 7.99819 13.0898C9.12522 13.0898 10.2013 12.8717 11.1866 12.4754L11.4956 12.7844L13.6151 14.9076L14.5422 13.9841L1.65416 1.09253L0.727096 2.01959ZM4.74802 6.03687L5.8714 7.16025C5.83868 7.31659 5.81687 7.4729 5.81687 7.6365C5.81687 8.83987 6.79482 9.81782 7.99819 9.81782C8.16179 9.81782 8.31813 9.79601 8.47082 9.76329L9.5942 10.8867C9.11067 11.1266 8.57263 11.272 7.99819 11.272C5.99138 11.272 4.36264 9.64331 4.36264 7.6365C4.36264 7.06209 4.50808 6.52402 4.74802 6.03687Z" fill="#767676"/>
</g>
<defs>
<clipPath id="clip0_227_1414">
<rect width="16" height="16" rx="4" fill="white"/>
</clipPath>
</defs>
</svg>
