<svg width="32" height="32" viewBox="0 0 32 32" fill="none" xmlns="http://www.w3.org/2000/svg">
<rect width="32" height="32" rx="16" fill="#FFFBD4" fill-opacity="0.8"/>
<path d="M16.6663 13.6667H15.333V12.3334H16.6663V13.6667ZM16.6663 16.6667H15.333V15.3334H16.6663V16.6667ZM16.6663 19.6667H15.333V18.3334H16.6663V19.6667ZM22.6663 14.6667V12.0001C22.6663 11.2601 22.0663 10.6667 21.333 10.6667H10.6663C10.3127 10.6667 9.97358 10.8072 9.72353 11.0573C9.47348 11.3073 9.33301 11.6465 9.33301 12.0001V14.6667C10.073 14.6667 10.6663 15.2667 10.6663 16.0001C10.6663 16.3537 10.5259 16.6928 10.2758 16.9429C10.0258 17.1929 9.68663 17.3334 9.33301 17.3334V20.0001C9.33301 20.3537 9.47348 20.6928 9.72353 20.9429C9.97358 21.1929 10.3127 21.3334 10.6663 21.3334H21.333C21.6866 21.3334 22.0258 21.1929 22.2758 20.9429C22.5259 20.6928 22.6663 20.3537 22.6663 20.0001V17.3334C22.3127 17.3334 21.9736 17.1929 21.7235 16.9429C21.4735 16.6928 21.333 16.3537 21.333 16.0001C21.333 15.6465 21.4735 15.3073 21.7235 15.0573C21.9736 14.8072 22.3127 14.6667 22.6663 14.6667V14.6667Z" fill="#EBB223"/>
</svg>
