<svg width="11" height="14" viewBox="0 0 11 14" fill="none" xmlns="http://www.w3.org/2000/svg">
<path d="M5.33333 6.66667C5.7 6.66667 6.014 6.536 6.27533 6.27467C6.53622 6.01378 6.66667 5.7 6.66667 5.33333C6.66667 4.96667 6.53622 4.65267 6.27533 4.39133C6.014 4.13044 5.7 4 5.33333 4C4.96667 4 4.65289 4.13044 4.392 4.39133C4.13067 4.65267 4 4.96667 4 5.33333C4 5.7 4.13067 6.01378 4.392 6.27467C4.65289 6.536 4.96667 6.66667 5.33333 6.66667ZM5.33333 13.0833C5.24444 13.0833 5.15556 13.0667 5.06667 13.0333C4.97778 13 4.9 12.9556 4.83333 12.9C3.21111 11.4667 2 10.1362 1.2 8.90867C0.4 7.68067 0 6.53333 0 5.46667C0 3.8 0.536222 2.47222 1.60867 1.48333C2.68067 0.494444 3.92222 0 5.33333 0C6.74444 0 7.986 0.494444 9.058 1.48333C10.1304 2.47222 10.6667 3.8 10.6667 5.46667C10.6667 6.53333 10.2667 7.68067 9.46667 8.90867C8.66667 10.1362 7.45556 11.4667 5.83333 12.9C5.76667 12.9556 5.68889 13 5.6 13.0333C5.51111 13.0667 5.42222 13.0833 5.33333 13.0833Z" fill="#095896"/>
</svg>
