<svg width="16" height="16" viewBox="0 0 16 16" fill="none" xmlns="http://www.w3.org/2000/svg">
<path d="M14.0003 12.6666V13.3333H2.00033V12.6666L3.33366 11.3333V7.33325C3.33366 5.26659 4.68699 3.44659 6.66699 2.85992C6.66699 2.79325 6.66699 2.73325 6.66699 2.66659C6.66699 2.31296 6.80747 1.97382 7.05752 1.72378C7.30756 1.47373 7.6467 1.33325 8.00033 1.33325C8.35395 1.33325 8.69309 1.47373 8.94313 1.72378C9.19318 1.97382 9.33366 2.31296 9.33366 2.66659C9.33366 2.73325 9.33366 2.79325 9.33366 2.85992C11.3137 3.44659 12.667 5.26659 12.667 7.33325V11.3333L14.0003 12.6666ZM9.33366 13.9999C9.33366 14.3535 9.19318 14.6927 8.94313 14.9427C8.69309 15.1928 8.35395 15.3333 8.00033 15.3333C7.6467 15.3333 7.30756 15.1928 7.05752 14.9427C6.80747 14.6927 6.66699 14.3535 6.66699 13.9999H9.33366ZM13.167 2.12659L12.2203 3.07325C13.3603 4.19992 14.0003 5.73325 14.0003 7.33325H15.3337C15.3337 5.37992 14.5603 3.49992 13.167 2.12659ZM0.666992 7.33325H2.00033C2.00033 5.73325 2.64033 4.19992 3.78033 3.07325L2.83366 2.12659C1.44033 3.49992 0.666992 5.37992 0.666992 7.33325Z" fill="#E0E0E0"/>
</svg>
