<svg width="16" height="16" viewBox="0 0 16 16" fill="none" xmlns="http://www.w3.org/2000/svg">
<path fill-rule="evenodd" clip-rule="evenodd" d="M12.6663 6.66675C12.6663 3.96063 11.1741 2.08241 9.24326 1.51856C9.17335 1.33766 9.06285 1.16948 8.91266 1.02837C8.39949 0.546208 7.59986 0.546208 7.08668 1.02837C6.93682 1.16917 6.82648 1.33692 6.75655 1.51736C4.82324 2.07877 3.33301 3.95288 3.33301 6.66675C3.33301 8.42268 2.979 9.4066 2.32365 10.1196C2.21408 10.2388 1.91724 10.5119 1.71615 10.6969L1.71613 10.6969L1.71612 10.6969L1.7161 10.6969C1.62097 10.7845 1.54727 10.8523 1.52498 10.8747L1.33301 11.0694V13.3428H5.39166C5.5289 14.0508 5.91307 14.5245 6.60781 14.9485C7.46244 15.47 8.53691 15.47 9.39154 14.9485C10.0047 14.5743 10.4158 13.9993 10.5826 13.3428H14.6663V11.0694L14.4744 10.8747C14.4542 10.8542 14.3835 10.789 14.2911 10.7038L14.291 10.7037C14.0905 10.5188 13.7878 10.2396 13.6766 10.118C13.0208 9.40168 12.6663 8.41651 12.6663 6.66675ZM9.15749 13.3428H6.78542C6.87961 13.518 7.04015 13.6503 7.30235 13.8103C7.73052 14.0716 8.26883 14.0716 8.697 13.8103C8.89527 13.6893 9.0502 13.5292 9.15749 13.3428ZM12.6931 11.0184C12.8334 11.1716 13.1341 11.4517 13.333 11.6347V12.0095H2.66634V11.635C2.86372 11.4541 3.1653 11.1743 3.30533 11.0219C4.19582 10.053 4.66634 8.74528 4.66634 6.66675C4.66634 4.14668 6.22152 2.675 7.99967 2.675C9.77281 2.675 11.333 4.15427 11.333 6.66675C11.333 8.73861 11.8037 10.0468 12.6931 11.0184Z" fill="#767676"/>
<circle cx="11.7492" cy="3.41714" r="2.56714" fill="#35B369" stroke="white" stroke-width="0.7"/>
</svg>
