<svg width="28" height="28" viewBox="0 0 28 28" fill="none" xmlns="http://www.w3.org/2000/svg">
<rect width="28" height="28" rx="14" fill="#FF731D"/>
<path d="M19.4895 13.7551L14.2395 8.50508C14.0208 8.28813 13.7251 8.1665 13.417 8.16675H9.33366C9.02424 8.16675 8.72749 8.28966 8.5087 8.50846C8.28991 8.72725 8.16699 9.024 8.16699 9.33342V13.4167C8.16829 13.7257 8.29207 14.0215 8.51116 14.2392L13.7612 19.4892C13.9789 19.7083 14.2747 19.8321 14.5837 19.8334C14.8926 19.8321 15.1884 19.7083 15.4062 19.4892L19.4895 15.4059C19.7086 15.1881 19.8324 14.8923 19.8337 14.5834C19.8338 14.4295 19.8034 14.277 19.7444 14.1349C19.6853 13.9927 19.5987 13.8636 19.4895 13.7551ZM10.792 11.6667C10.6189 11.6667 10.4498 11.6154 10.3059 11.5193C10.162 11.4231 10.0498 11.2865 9.9836 11.1266C9.91737 10.9667 9.90004 10.7908 9.9338 10.621C9.96757 10.4513 10.0509 10.2954 10.1733 10.173C10.2956 10.0507 10.4516 9.96732 10.6213 9.93356C10.791 9.8998 10.967 9.91713 11.1268 9.98335C11.2867 10.0496 11.4234 10.1617 11.5195 10.3056C11.6157 10.4495 11.667 10.6187 11.667 10.7917C11.667 11.0238 11.5748 11.2464 11.4107 11.4105C11.2466 11.5746 11.0241 11.6667 10.792 11.6667ZM13.7612 15.9892L11.4278 13.6559L12.2503 12.8334L14.5837 15.1667L13.7612 15.9892ZM16.0945 15.4059L12.8862 12.1976L13.7087 11.3751L16.917 14.5834L16.0945 15.4059Z" fill="white"/>
</svg>
