<svg width="15" height="14" viewBox="0 0 15 14" fill="none" xmlns="http://www.w3.org/2000/svg">
<path d="M13.3333 11.3333V12H1.33333V11.3333L2.66667 10V6C2.66667 3.93333 4.02 2.11333 6 1.52667C6 1.46 6 1.4 6 1.33333C6 0.979711 6.14048 0.640573 6.39052 0.390524C6.64057 0.140476 6.97971 0 7.33333 0C7.68695 0 8.02609 0.140476 8.27614 0.390524C8.52619 0.640573 8.66667 0.979711 8.66667 1.33333C8.66667 1.4 8.66667 1.46 8.66667 1.52667C10.6467 2.11333 12 3.93333 12 6V10L13.3333 11.3333ZM8.66667 12.6667C8.66667 13.0203 8.52619 13.3594 8.27614 13.6095C8.02609 13.8595 7.68695 14 7.33333 14C6.97971 14 6.64057 13.8595 6.39052 13.6095C6.14048 13.3594 6 13.0203 6 12.6667H8.66667ZM12.5 0.793333L11.5533 1.74C12.6933 2.86667 13.3333 4.4 13.3333 6H14.6667C14.6667 4.04667 13.8933 2.16667 12.5 0.793333ZM0 6H1.33333C1.33333 4.4 1.97333 2.86667 3.11333 1.74L2.16667 0.793333C0.773333 2.16667 0 4.04667 0 6Z" fill="#FF731D"/>
</svg>
