<svg width="16" height="16" viewBox="0 0 16 16" fill="none" xmlns="http://www.w3.org/2000/svg">
<path d="M7.99967 13.3333C10.933 13.3333 13.333 10.9333 13.333 7.99992C13.333 5.06659 10.933 2.66659 7.99967 2.66659C5.06634 2.66659 2.66634 5.06659 2.66634 7.99992C2.66634 10.9333 5.06634 13.3333 7.99967 13.3333ZM7.99967 1.33325C11.6663 1.33325 14.6663 4.33325 14.6663 7.99992C14.6663 11.6666 11.6663 14.6666 7.99967 14.6666C4.33301 14.6666 1.33301 11.6666 1.33301 7.99992C1.33301 4.33325 4.33301 1.33325 7.99967 1.33325ZM10.1997 10.7999L9.33301 11.3333L7.33301 7.86659V4.66659H8.33301V7.59992L10.1997 10.7999Z" fill="#35B369"/>
</svg>
