<svg width="51" height="40" viewBox="0 0 51 40" fill="none" xmlns="http://www.w3.org/2000/svg">
<path d="M48.6689 6.3429C47.2324 5.49784 45.5388 5.67535 44.2553 6.81293C44.1724 6.88543 44.0937 6.96794 44.0215 7.05294L40.2879 11.4857C39.8395 5.07282 35.3133 8.35662e-07 29.75 8.35662e-07H10.625C4.76638 -0.00249932 0 5.60535 0 12.4983V27.4992C0 34.3921 4.76638 40 10.625 40H29.75C35.3366 40 39.882 34.8822 40.2942 28.4318L44.0258 32.8171C44.098 32.8996 44.1724 32.9746 44.2531 33.0471C45.0011 33.7071 45.8851 34.0421 46.7776 34.0421C47.4215 34.0421 48.0654 33.8696 48.6689 33.5146C50.1075 32.6695 51 30.9669 51 29.0793V10.7832C51 8.89056 50.1075 7.18795 48.6689 6.3429ZM29.75 34.9997H10.625C7.11025 34.9997 4.25 31.6345 4.25 27.4992V12.4983C4.25 8.36302 7.11025 4.99781 10.625 4.99781H29.75C33.2648 4.99781 36.125 8.36302 36.125 12.4983V27.4992C36.125 31.6345 33.2648 34.9997 29.75 34.9997ZM40.375 21.4563V18.4837L46.75 10.9132L46.8031 29.0093L40.375 21.4538V21.4563Z" fill="#E0E0E0"/>
</svg>
