<svg width="9" height="9" viewBox="0 0 9 9" fill="none" xmlns="http://www.w3.org/2000/svg">
<path d="M1.4625 4.5C1.4625 3.85875 1.98375 3.3375 2.625 3.3375H4.125V2.625H2.625C2.12772 2.625 1.65081 2.82254 1.29917 3.17417C0.947544 3.52581 0.75 4.00272 0.75 4.5C0.75 4.99728 0.947544 5.47419 1.29917 5.82583C1.65081 6.17746 2.12772 6.375 2.625 6.375H4.125V5.6625H2.625C1.98375 5.6625 1.4625 5.14125 1.4625 4.5ZM3 4.875H6V4.125H3V4.875ZM6.375 2.625H4.875V3.3375H6.375C7.01625 3.3375 7.5375 3.85875 7.5375 4.5C7.5375 5.14125 7.01625 5.6625 6.375 5.6625H4.875V6.375H6.375C6.87228 6.375 7.34919 6.17746 7.70083 5.82583C8.05246 5.47419 8.25 4.99728 8.25 4.5C8.25 4.00272 8.05246 3.52581 7.70083 3.17417C7.34919 2.82254 6.87228 2.625 6.375 2.625V2.625Z" fill="#404040"/>
</svg>
