<svg width="322" height="198" viewBox="0 0 322 198" fill="none" xmlns="http://www.w3.org/2000/svg">
<path d="M71.406 26.2177L11.416 66.4473L70.5059 155.002L130.496 114.772L71.406 26.2177Z" fill="#F5F5F5"/>
<path d="M99.4959 110.583L98.8169 114.807L68.9932 110.498L69.6722 106.274L99.4959 110.583Z" fill="#E0E0E0"/>
<path d="M84.4773 95.5166L88.7547 96.133L84.0122 125.57L79.7295 124.948L84.4773 95.5166Z" fill="#E0E0E0"/>
<path d="M57.0326 58.1038C57.0754 58.1628 51.0657 62.2739 43.6071 67.2694C36.1485 72.2649 30.0694 76.2742 30.0266 76.2099C29.9838 76.1456 35.9935 72.0398 43.4521 67.0389C50.9107 62.038 56.9631 58.0395 57.0326 58.1038Z" fill="#E0E0E0"/>
<path d="M79.0717 52.5508C79.1145 52.6151 69.1162 59.3901 56.744 67.6874C44.3718 75.9847 34.288 82.6579 34.2559 82.5989C34.2239 82.54 44.2007 75.7542 56.589 67.4569C68.9772 59.1596 79.0289 52.4864 79.0717 52.5508Z" fill="#E0E0E0"/>
<path d="M83.4936 59.1758C83.5363 59.2401 73.5381 66.0205 61.1659 74.3178C48.7937 82.615 38.7099 89.2882 38.6778 89.2239C38.6457 89.1596 48.6333 82.3846 61.0108 74.0819C73.3884 65.7793 83.4508 59.1114 83.4936 59.1758Z" fill="#E0E0E0"/>
<path d="M87.9145 65.8061C87.9573 65.8704 77.959 72.6508 65.5869 80.9428C53.2147 89.2347 43.1309 95.9186 43.1309 95.8543C43.1309 95.79 53.081 89.0096 65.4585 80.7123C77.8361 72.415 87.8718 65.7418 87.9145 65.8061Z" fill="#E0E0E0"/>
<path d="M92.3202 72.4363C92.363 72.5006 82.3647 79.2756 69.9926 87.5729C57.6204 95.8702 47.5366 102.543 47.5098 102.479C47.4831 102.415 57.476 95.6397 69.8642 87.3424C82.2525 79.0451 92.3202 72.3719 92.3202 72.4363Z" fill="#E0E0E0"/>
<path d="M272.005 85.5547L221.623 119.341L271.248 193.71L321.63 159.924L272.005 85.5547Z" fill="#F5F5F5"/>
<path d="M295.601 156.422L295.029 159.971L269.979 156.353L270.557 152.804L295.601 156.422Z" fill="#E0E0E0"/>
<path d="M282.988 143.767L286.581 144.287L282.597 169.007L278.999 168.487L282.988 143.767Z" fill="#E0E0E0"/>
<path d="M259.917 112.374C259.959 112.438 254.918 115.895 248.651 120.092C242.385 124.289 237.274 127.644 237.231 127.596C237.188 127.548 242.235 124.08 248.496 119.878C254.757 115.675 259.874 112.282 259.917 112.374Z" fill="#E0E0E0"/>
<path d="M278.444 107.684C278.486 107.748 270.097 113.451 259.73 120.414C249.363 127.376 240.878 132.983 240.835 132.919C240.792 132.854 249.181 127.151 259.548 120.183C269.916 113.215 278.385 107.619 278.444 107.684Z" fill="#E0E0E0"/>
<path d="M282.159 113.247C282.202 113.312 273.813 119.015 263.446 125.983C253.079 132.951 244.594 138.546 244.551 138.482C244.508 138.418 252.87 132.742 263.264 125.774C273.658 118.806 282.127 113.188 282.159 113.247Z" fill="#E0E0E0"/>
<path d="M285.869 118.806C285.912 118.87 277.518 124.573 267.156 131.541C256.794 138.509 248.304 144.105 248.261 144.04C248.218 143.976 256.607 138.278 266.974 131.305C277.341 124.332 285.832 118.752 285.869 118.806Z" fill="#E0E0E0"/>
<path d="M289.613 124.385C289.655 124.45 281.266 130.147 270.899 137.115C260.532 144.083 252.047 149.679 252.004 149.62C251.961 149.561 260.35 143.853 270.717 136.885C281.085 129.917 289.543 124.321 289.613 124.385Z" fill="#E0E0E0"/>
<path d="M192.298 29.4756L137.325 0L94.0312 81.1482L149.004 110.624L192.298 29.4756Z" fill="#F5F5F5"/>
<path d="M139.596 85.2358L136.11 86.4311L127.256 61.8984L130.747 60.6978L139.596 85.2358Z" fill="#E0E0E0"/>
<path d="M144.943 67.6338L146.215 71.1553L121.909 79.5008L120.637 75.9793L144.943 67.6338Z" fill="#E0E0E0"/>
<path d="M162.212 31.4376C162.169 31.518 156.598 28.6128 149.759 24.952C142.921 21.2911 137.419 18.252 137.462 18.1716C137.505 18.0912 143.082 20.9963 149.92 24.6572C156.758 28.318 162.255 31.3518 162.212 31.4376Z" fill="#E0E0E0"/>
<path d="M175.407 46.033C175.364 46.1134 166.136 41.2466 154.796 35.1683C143.456 29.0901 134.302 24.0946 134.345 24.0142C134.388 23.9338 143.611 28.7953 154.951 34.8789C166.291 40.9625 175.45 45.9526 175.407 46.033Z" fill="#E0E0E0"/>
<path d="M172.168 52.1058C172.125 52.1862 162.897 47.3247 151.557 41.2411C140.216 35.1575 131.063 30.1673 131.106 30.0869C131.148 30.0065 140.371 34.8734 151.712 40.9516C163.052 47.0299 172.211 52.0254 172.168 52.1058Z" fill="#E0E0E0"/>
<path d="M168.928 58.1787C168.885 58.2591 159.657 53.3976 148.316 47.3194C136.976 41.2411 127.823 36.2617 127.865 36.1652C127.908 36.0687 137.131 40.9463 148.471 47.0246C159.812 53.1028 168.971 58.0983 168.928 58.1787Z" fill="#E0E0E0"/>
<path d="M165.688 64.2516C165.645 64.332 156.416 59.4705 145.076 53.3922C133.736 47.314 124.577 42.3184 124.625 42.238C124.673 42.1576 133.891 47.0192 145.231 53.0974C156.572 59.1756 165.73 64.1712 165.688 64.2516Z" fill="#E0E0E0"/>
<path d="M308.684 196.435C308.684 196.51 239.579 196.574 154.348 196.574C69.1164 196.574 0 196.526 0 196.435C0 196.343 69.095 196.295 154.348 196.295C239.6 196.295 308.684 196.354 308.684 196.435Z" fill="#263238"/>
<path d="M17.0874 162.865C17.9914 162.93 18.873 163.177 19.6795 163.592C20.486 164.006 21.201 164.579 21.7818 165.277C22.9366 166.68 23.7543 168.33 24.1718 170.101C25.0754 173.488 24.5193 177.492 23.5569 180.864C19.8998 179.55 17.6382 175.638 16.6062 173.579C15.0022 170.331 14.0452 163.47 17.0714 162.859" fill="#095896"/>
<path d="M28.8235 184.975C28.2744 184.121 27.9603 183.137 27.9134 182.122C27.8664 181.107 28.0882 180.098 28.5562 179.197C29.0389 178.304 29.694 177.517 30.4835 176.881C31.273 176.245 32.1809 175.773 33.1543 175.493C34.0472 175.214 35.0845 175.102 35.8597 175.622C36.2092 175.887 36.4814 176.241 36.6479 176.647C36.8143 177.053 36.869 177.497 36.8061 177.932C36.6658 178.803 36.2967 179.62 35.7368 180.301C33.9563 182.718 31.7963 184.728 28.7861 184.975" fill="#095896"/>
<path d="M29.23 196.3C29.1506 196.073 29.0951 195.837 29.0642 195.598C28.968 195.094 28.8397 194.446 28.6846 193.669C28.2047 191.54 28.0711 189.349 28.289 187.178C28.5411 184.996 29.3698 182.922 30.6896 181.169C31.0928 180.645 31.5578 180.172 32.0744 179.759C32.2148 179.648 32.3611 179.544 32.5128 179.449C32.5611 179.408 32.6152 179.376 32.6732 179.352C31.9969 179.931 31.3791 180.576 30.8286 181.276C29.5784 183.031 28.7912 185.074 28.5402 187.215C28.1981 189.713 28.6204 192.002 28.8664 193.647C28.9947 194.467 29.1016 195.132 29.1605 195.593C29.2026 195.826 29.2258 196.063 29.23 196.3Z" fill="#263238"/>
<path d="M18.2637 168.026C18.3247 168.111 18.375 168.203 18.4134 168.3C18.5096 168.514 18.6379 168.782 18.7876 169.12C19.1138 169.833 19.5683 170.867 20.119 172.148C21.2204 174.716 22.6961 178.285 24.2359 182.263C25.7757 186.24 27.0857 189.868 27.9786 192.511C28.4384 193.829 28.7966 194.901 29.0479 195.646C29.1602 196 29.2457 196.284 29.3152 196.504C29.3534 196.603 29.3803 196.705 29.3954 196.81C29.3412 196.719 29.2981 196.621 29.2671 196.52C29.1869 196.306 29.0853 196.027 28.9517 195.679L27.8235 192.57C26.8665 189.949 25.5298 186.325 23.9953 182.354C22.4608 178.382 21.0065 174.801 19.9479 172.218C19.4132 170.948 19.0015 169.913 18.6968 169.157C18.5577 168.814 18.4455 168.541 18.3599 168.321C18.3197 168.226 18.2876 168.127 18.2637 168.026Z" fill="#263238"/>
<path d="M24.8832 188.807C23.783 186.971 22.2627 185.423 20.4479 184.293C18.6331 183.162 16.576 182.481 14.4465 182.305C13.3772 182.23 12.0619 182.413 11.5807 183.377C11.0995 184.342 11.7411 185.521 12.4789 186.304C14.0466 187.948 16.0647 189.09 18.2788 189.586C20.4929 190.082 22.804 189.91 24.9206 189.091" fill="#095896"/>
<path d="M16.0938 185.211C16.3205 185.199 16.5477 185.208 16.7728 185.237C17.0364 185.252 17.2989 185.282 17.5588 185.328C17.8635 185.387 18.2217 185.42 18.596 185.527C19.0144 185.616 19.4268 185.73 19.8311 185.87C20.2994 186.021 20.7583 186.2 21.2052 186.406C22.2331 186.867 23.2053 187.445 24.1031 188.126C24.9905 188.824 25.7943 189.623 26.4984 190.506C26.8024 190.891 27.0828 191.293 27.3378 191.712C27.5684 192.074 27.779 192.448 27.9687 192.832C28.1294 193.146 28.2722 193.468 28.3965 193.797C28.5037 194.041 28.5947 194.292 28.6691 194.548C28.7483 194.761 28.8074 194.982 28.8456 195.207C28.7868 195.207 28.5301 194.285 27.8083 192.913C27.6118 192.544 27.3958 192.186 27.1614 191.841C26.9008 191.435 26.6188 191.043 26.3166 190.667C24.9181 188.935 23.1347 187.554 21.1089 186.636C20.6438 186.433 20.2 186.24 19.7669 186.1C19.3693 185.955 18.9642 185.832 18.5532 185.73C17.0562 185.318 16.0884 185.269 16.0938 185.211Z" fill="#263238"/>
<path d="M113.707 86.399L94.7798 183.844L92.3203 196.601L218.502 195.99C224.169 195.963 229.195 190.919 231.008 183.426L253.389 91.4321C254.773 85.7451 251.737 79.8277 247.438 79.833L119.695 79.967C116.915 79.9617 114.423 82.5988 113.707 86.399Z" fill="#095896"/>
<g opacity="0.5">
<path d="M113.707 86.399L94.7798 183.844L92.3203 196.601L218.502 195.99C224.169 195.963 229.195 190.919 231.008 183.426L253.389 91.4321C254.773 85.7451 251.737 79.8277 247.438 79.833L119.695 79.967C116.915 79.9617 114.423 82.5988 113.707 86.399Z" fill="black"/>
</g>
<path d="M206.413 177.23L193.046 69.2739C192.511 64.8519 188.988 61.5501 184.833 61.5662L155.534 61.6573C154.445 61.6696 153.37 61.9041 152.374 62.3464C151.379 62.7888 150.484 63.4297 149.743 64.2301L135.842 79.0613L54.3587 79.5008C49.381 79.5276 45.5528 84.2551 46.2104 89.5615L58.62 189.338C59.1547 193.755 62.6781 197.051 66.8218 197.046L208.856 196.761C224.671 197.088 226.185 192.409 226.185 192.409C208.027 196.435 206.413 177.256 206.413 177.23Z" fill="#095896"/>
<g opacity="0.5">
<path d="M145.167 155.64L140.376 160.796L103.484 127.521L108.275 122.365L145.167 155.64Z" fill="white"/>
<path d="M138.371 121.223L143.664 125.999L110.285 161.938L104.986 157.162L138.371 121.223Z" fill="white"/>
</g>
</svg>
